<svg width="24" height="24" viewBox="0 0 24 24" fill="none" xmlns="http://www.w3.org/2000/svg">
<rect width="24" height="24" rx="4" fill="black"/>
<path d="M10.4616 21.2642C9.6321 21.2642 8.88494 21.1165 8.22017 20.821C7.56108 20.5199 7.03835 20.0767 6.65199 19.4915C6.27131 18.9062 6.08097 18.1847 6.08097 17.3267C6.08097 16.5881 6.21733 15.9773 6.49006 15.4943C6.76278 15.0114 7.13494 14.625 7.60653 14.3352C8.07813 14.0455 8.60938 13.8267 9.20028 13.679C9.79688 13.5256 10.4134 13.4148 11.0497 13.3466C11.8168 13.267 12.4389 13.196 12.9162 13.1335C13.3935 13.0653 13.7401 12.9631 13.956 12.8267C14.1776 12.6847 14.2884 12.4659 14.2884 12.1705V12.1193C14.2884 11.4773 14.098 10.9801 13.7173 10.6278C13.3366 10.2756 12.7884 10.0994 12.0724 10.0994C11.3168 10.0994 10.7173 10.2642 10.2741 10.5938C9.83665 10.9233 9.54119 11.3125 9.38778 11.7614L6.5071 11.3523C6.73438 10.5568 7.10938 9.89205 7.6321 9.35795C8.15483 8.81818 8.79403 8.41477 9.54972 8.14773C10.3054 7.875 11.1406 7.73864 12.0554 7.73864C12.6861 7.73864 13.3139 7.8125 13.9389 7.96023C14.5639 8.10795 15.1349 8.35227 15.652 8.69318C16.169 9.02841 16.5838 9.4858 16.8963 10.0653C17.2145 10.6449 17.3736 11.3693 17.3736 12.2386V21H14.4077V19.2017H14.3054C14.1179 19.5653 13.8537 19.9062 13.5128 20.2244C13.1776 20.5369 12.7543 20.7898 12.2429 20.983C11.7372 21.1705 11.1435 21.2642 10.4616 21.2642ZM11.2628 18.9972C11.8821 18.9972 12.419 18.875 12.8736 18.6307C13.3281 18.3807 13.6776 18.0511 13.9219 17.642C14.1719 17.233 14.2969 16.7869 14.2969 16.304V14.7614C14.2003 14.8409 14.0355 14.9148 13.8026 14.983C13.5753 15.0511 13.3196 15.1108 13.0355 15.1619C12.7514 15.2131 12.4702 15.2585 12.1918 15.2983C11.9134 15.3381 11.6719 15.3722 11.4673 15.4006C11.0071 15.4631 10.5952 15.5653 10.2315 15.7074C9.8679 15.8494 9.58097 16.0483 9.37074 16.304C9.16051 16.554 9.0554 16.8778 9.0554 17.2756C9.0554 17.8438 9.26278 18.2727 9.67756 18.5625C10.0923 18.8523 10.6207 18.9972 11.2628 18.9972Z" fill="white"/>
</svg>
